<mxfile host="Electron" agent="Mozilla/5.0 (Macintosh; Intel Mac OS X 10_15_7) AppleWebKit/537.36 (KHTML, like Gecko) draw.io/27.0.9 Chrome/134.0.6998.205 Electron/35.4.0 Safari/537.36" version="27.0.9">
  <diagram name="Page-1" id="Q3LpZTJptfd8fAtM910Q">
    <mxGraphModel dx="1570" dy="636" grid="1" gridSize="10" guides="1" tooltips="1" connect="1" arrows="1" fold="1" page="1" pageScale="1" pageWidth="827" pageHeight="1169" math="0" shadow="0">
      <root>
        <mxCell id="0" />
        <mxCell id="1" parent="0" />
        <mxCell id="G32MJahWbBB-IwMtLDE4-54" value="" style="endArrow=none;html=1;strokeWidth=2;rounded=0;exitX=0;exitY=1;exitDx=0;exitDy=0;entryX=0;entryY=1;entryDx=0;entryDy=0;dashed=1;" edge="1" parent="1" source="G32MJahWbBB-IwMtLDE4-48" target="G32MJahWbBB-IwMtLDE4-51">
          <mxGeometry width="50" height="50" relative="1" as="geometry">
            <mxPoint x="520" y="630" as="sourcePoint" />
            <mxPoint x="920" y="752" as="targetPoint" />
          </mxGeometry>
        </mxCell>
        <mxCell id="G32MJahWbBB-IwMtLDE4-10" value="" style="whiteSpace=wrap;html=1;aspect=fixed;fillStyle=auto;fillColor=none;" vertex="1" parent="1">
          <mxGeometry x="520" y="322" width="160" height="160" as="geometry" />
        </mxCell>
        <mxCell id="G32MJahWbBB-IwMtLDE4-52" value="" style="rounded=0;whiteSpace=wrap;html=1;fillColor=#fff2cc;strokeColor=#d6b656;" vertex="1" parent="1">
          <mxGeometry x="640" y="442" width="40" height="40" as="geometry" />
        </mxCell>
        <mxCell id="G32MJahWbBB-IwMtLDE4-56" value="" style="endArrow=none;html=1;strokeWidth=2;rounded=0;exitX=1;exitY=1;exitDx=0;exitDy=0;entryX=1;entryY=1;entryDx=0;entryDy=0;dashed=1;" edge="1" parent="1" source="G32MJahWbBB-IwMtLDE4-49" target="G32MJahWbBB-IwMtLDE4-51">
          <mxGeometry width="50" height="50" relative="1" as="geometry">
            <mxPoint x="370" y="620" as="sourcePoint" />
            <mxPoint x="770" y="702" as="targetPoint" />
          </mxGeometry>
        </mxCell>
        <mxCell id="G32MJahWbBB-IwMtLDE4-50" value="" style="whiteSpace=wrap;html=1;aspect=fixed;fillColor=#fff2cc;strokeColor=#d6b656;" vertex="1" parent="1">
          <mxGeometry x="240" y="320" width="80" height="80" as="geometry" />
        </mxCell>
        <mxCell id="G32MJahWbBB-IwMtLDE4-27" value="" style="whiteSpace=wrap;html=1;aspect=fixed;fillColor=#FF6666;" vertex="1" parent="1">
          <mxGeometry x="520" y="322" width="40" height="40" as="geometry" />
        </mxCell>
        <mxCell id="G32MJahWbBB-IwMtLDE4-26" value="" style="whiteSpace=wrap;html=1;aspect=fixed;fillColor=#FF6666;" vertex="1" parent="1">
          <mxGeometry x="120" y="200" width="80" height="80" as="geometry" />
        </mxCell>
        <mxCell id="G32MJahWbBB-IwMtLDE4-29" value="X1" style="text;html=1;align=center;verticalAlign=middle;whiteSpace=wrap;rounded=0;" vertex="1" parent="1">
          <mxGeometry x="120" y="200" width="40" height="40" as="geometry" />
        </mxCell>
        <mxCell id="G32MJahWbBB-IwMtLDE4-30" value="X2" style="text;html=1;align=center;verticalAlign=middle;whiteSpace=wrap;rounded=0;" vertex="1" parent="1">
          <mxGeometry x="160" y="200" width="40" height="40" as="geometry" />
        </mxCell>
        <mxCell id="G32MJahWbBB-IwMtLDE4-1" value="" style="whiteSpace=wrap;html=1;aspect=fixed;fillStyle=auto;fillColor=none;" vertex="1" parent="1">
          <mxGeometry x="120" y="200" width="200" height="200" as="geometry" />
        </mxCell>
        <mxCell id="G32MJahWbBB-IwMtLDE4-2" value="" style="endArrow=none;html=1;rounded=0;entryX=0;entryY=0.195;entryDx=0;entryDy=0;entryPerimeter=0;exitX=0.995;exitY=0.2;exitDx=0;exitDy=0;exitPerimeter=0;" edge="1" parent="1" source="G32MJahWbBB-IwMtLDE4-1" target="G32MJahWbBB-IwMtLDE4-1">
          <mxGeometry width="50" height="50" relative="1" as="geometry">
            <mxPoint x="340" y="340" as="sourcePoint" />
            <mxPoint x="130" y="240" as="targetPoint" />
          </mxGeometry>
        </mxCell>
        <mxCell id="G32MJahWbBB-IwMtLDE4-3" value="" style="endArrow=none;html=1;rounded=0;entryX=0;entryY=0.195;entryDx=0;entryDy=0;entryPerimeter=0;exitX=0.995;exitY=0.2;exitDx=0;exitDy=0;exitPerimeter=0;" edge="1" parent="1">
          <mxGeometry width="50" height="50" relative="1" as="geometry">
            <mxPoint x="320" y="281" as="sourcePoint" />
            <mxPoint x="121" y="280" as="targetPoint" />
          </mxGeometry>
        </mxCell>
        <mxCell id="G32MJahWbBB-IwMtLDE4-4" value="" style="endArrow=none;html=1;rounded=0;entryX=0;entryY=0.195;entryDx=0;entryDy=0;entryPerimeter=0;exitX=0.995;exitY=0.2;exitDx=0;exitDy=0;exitPerimeter=0;" edge="1" parent="1">
          <mxGeometry width="50" height="50" relative="1" as="geometry">
            <mxPoint x="320" y="321" as="sourcePoint" />
            <mxPoint x="121" y="320" as="targetPoint" />
          </mxGeometry>
        </mxCell>
        <mxCell id="G32MJahWbBB-IwMtLDE4-5" value="" style="endArrow=none;html=1;rounded=0;entryX=0;entryY=0.195;entryDx=0;entryDy=0;entryPerimeter=0;exitX=0.995;exitY=0.2;exitDx=0;exitDy=0;exitPerimeter=0;" edge="1" parent="1">
          <mxGeometry width="50" height="50" relative="1" as="geometry">
            <mxPoint x="320" y="361" as="sourcePoint" />
            <mxPoint x="121" y="360" as="targetPoint" />
          </mxGeometry>
        </mxCell>
        <mxCell id="G32MJahWbBB-IwMtLDE4-6" value="" style="endArrow=none;html=1;rounded=0;entryX=0.2;entryY=0;entryDx=0;entryDy=0;entryPerimeter=0;exitX=0.2;exitY=1.01;exitDx=0;exitDy=0;exitPerimeter=0;" edge="1" parent="1" source="G32MJahWbBB-IwMtLDE4-1" target="G32MJahWbBB-IwMtLDE4-1">
          <mxGeometry width="50" height="50" relative="1" as="geometry">
            <mxPoint x="639" y="331" as="sourcePoint" />
            <mxPoint x="440" y="330" as="targetPoint" />
          </mxGeometry>
        </mxCell>
        <mxCell id="G32MJahWbBB-IwMtLDE4-7" value="" style="endArrow=none;html=1;rounded=0;entryX=0.2;entryY=0;entryDx=0;entryDy=0;entryPerimeter=0;exitX=0.2;exitY=1.01;exitDx=0;exitDy=0;exitPerimeter=0;" edge="1" parent="1">
          <mxGeometry width="50" height="50" relative="1" as="geometry">
            <mxPoint x="200" y="400" as="sourcePoint" />
            <mxPoint x="200" y="198" as="targetPoint" />
          </mxGeometry>
        </mxCell>
        <mxCell id="G32MJahWbBB-IwMtLDE4-8" value="" style="endArrow=none;html=1;rounded=0;entryX=0.2;entryY=0;entryDx=0;entryDy=0;entryPerimeter=0;exitX=0.2;exitY=1.01;exitDx=0;exitDy=0;exitPerimeter=0;" edge="1" parent="1">
          <mxGeometry width="50" height="50" relative="1" as="geometry">
            <mxPoint x="240" y="400" as="sourcePoint" />
            <mxPoint x="240" y="198" as="targetPoint" />
          </mxGeometry>
        </mxCell>
        <mxCell id="G32MJahWbBB-IwMtLDE4-9" value="" style="endArrow=none;html=1;rounded=0;entryX=0.2;entryY=0;entryDx=0;entryDy=0;entryPerimeter=0;exitX=0.2;exitY=1.01;exitDx=0;exitDy=0;exitPerimeter=0;" edge="1" parent="1">
          <mxGeometry width="50" height="50" relative="1" as="geometry">
            <mxPoint x="280" y="400" as="sourcePoint" />
            <mxPoint x="280" y="198" as="targetPoint" />
          </mxGeometry>
        </mxCell>
        <mxCell id="G32MJahWbBB-IwMtLDE4-11" value="" style="endArrow=none;html=1;rounded=0;entryX=0;entryY=0.195;entryDx=0;entryDy=0;entryPerimeter=0;exitX=0.995;exitY=0.2;exitDx=0;exitDy=0;exitPerimeter=0;" edge="1" parent="1">
          <mxGeometry width="50" height="50" relative="1" as="geometry">
            <mxPoint x="680" y="360.8" as="sourcePoint" />
            <mxPoint x="520.8" y="360.00000000000006" as="targetPoint" />
          </mxGeometry>
        </mxCell>
        <mxCell id="G32MJahWbBB-IwMtLDE4-12" value="" style="endArrow=none;html=1;rounded=0;entryX=0;entryY=0.195;entryDx=0;entryDy=0;entryPerimeter=0;" edge="1" parent="1">
          <mxGeometry width="50" height="50" relative="1" as="geometry">
            <mxPoint x="680" y="402" as="sourcePoint" />
            <mxPoint x="521" y="402" as="targetPoint" />
          </mxGeometry>
        </mxCell>
        <mxCell id="G32MJahWbBB-IwMtLDE4-13" value="" style="endArrow=none;html=1;rounded=0;entryX=0;entryY=0.195;entryDx=0;entryDy=0;entryPerimeter=0;" edge="1" parent="1">
          <mxGeometry width="50" height="50" relative="1" as="geometry">
            <mxPoint x="680" y="442" as="sourcePoint" />
            <mxPoint x="521" y="442" as="targetPoint" />
          </mxGeometry>
        </mxCell>
        <mxCell id="G32MJahWbBB-IwMtLDE4-14" value="" style="endArrow=none;html=1;rounded=0;entryX=0;entryY=0.195;entryDx=0;entryDy=0;entryPerimeter=0;" edge="1" parent="1">
          <mxGeometry width="50" height="50" relative="1" as="geometry">
            <mxPoint x="680" y="482" as="sourcePoint" />
            <mxPoint x="521" y="482" as="targetPoint" />
          </mxGeometry>
        </mxCell>
        <mxCell id="G32MJahWbBB-IwMtLDE4-15" value="" style="endArrow=none;html=1;rounded=0;entryX=0.2;entryY=0;entryDx=0;entryDy=0;entryPerimeter=0;exitX=0.2;exitY=1.01;exitDx=0;exitDy=0;exitPerimeter=0;" edge="1" parent="1">
          <mxGeometry width="50" height="50" relative="1" as="geometry">
            <mxPoint x="560" y="483.5999999999999" as="sourcePoint" />
            <mxPoint x="560" y="322" as="targetPoint" />
          </mxGeometry>
        </mxCell>
        <mxCell id="G32MJahWbBB-IwMtLDE4-16" value="" style="endArrow=none;html=1;rounded=0;entryX=0.2;entryY=0;entryDx=0;entryDy=0;entryPerimeter=0;" edge="1" parent="1">
          <mxGeometry width="50" height="50" relative="1" as="geometry">
            <mxPoint x="600" y="480" as="sourcePoint" />
            <mxPoint x="600" y="320" as="targetPoint" />
          </mxGeometry>
        </mxCell>
        <mxCell id="G32MJahWbBB-IwMtLDE4-17" value="" style="endArrow=none;html=1;rounded=0;entryX=0.2;entryY=0;entryDx=0;entryDy=0;entryPerimeter=0;" edge="1" parent="1">
          <mxGeometry width="50" height="50" relative="1" as="geometry">
            <mxPoint x="640" y="480" as="sourcePoint" />
            <mxPoint x="640" y="320" as="targetPoint" />
          </mxGeometry>
        </mxCell>
        <mxCell id="G32MJahWbBB-IwMtLDE4-19" value="" style="endArrow=none;html=1;strokeWidth=2;rounded=0;exitX=0.4;exitY=-0.005;exitDx=0;exitDy=0;exitPerimeter=0;entryX=0.25;entryY=0;entryDx=0;entryDy=0;dashed=1;" edge="1" parent="1" source="G32MJahWbBB-IwMtLDE4-1" target="G32MJahWbBB-IwMtLDE4-10">
          <mxGeometry width="50" height="50" relative="1" as="geometry">
            <mxPoint x="200" y="150" as="sourcePoint" />
            <mxPoint x="250" y="100" as="targetPoint" />
          </mxGeometry>
        </mxCell>
        <mxCell id="G32MJahWbBB-IwMtLDE4-20" value="" style="endArrow=none;html=1;strokeWidth=2;rounded=0;exitX=0.4;exitY=-0.005;exitDx=0;exitDy=0;exitPerimeter=0;" edge="1" parent="1">
          <mxGeometry width="50" height="50" relative="1" as="geometry">
            <mxPoint x="120" y="281" as="sourcePoint" />
            <mxPoint x="520" y="360" as="targetPoint" />
          </mxGeometry>
        </mxCell>
        <mxCell id="G32MJahWbBB-IwMtLDE4-21" value="" style="endArrow=none;html=1;strokeWidth=2;rounded=0;exitX=0.4;exitY=-0.005;exitDx=0;exitDy=0;exitPerimeter=0;dashed=1;" edge="1" parent="1">
          <mxGeometry width="50" height="50" relative="1" as="geometry">
            <mxPoint x="200" y="283" as="sourcePoint" />
            <mxPoint x="560" y="360" as="targetPoint" />
          </mxGeometry>
        </mxCell>
        <mxCell id="G32MJahWbBB-IwMtLDE4-22" value="" style="endArrow=none;html=1;strokeWidth=2;rounded=0;exitX=0;exitY=0;exitDx=0;exitDy=0;entryX=0;entryY=0;entryDx=0;entryDy=0;" edge="1" parent="1" source="G32MJahWbBB-IwMtLDE4-1" target="G32MJahWbBB-IwMtLDE4-10">
          <mxGeometry width="50" height="50" relative="1" as="geometry">
            <mxPoint x="120" y="200" as="sourcePoint" />
            <mxPoint x="520" y="200" as="targetPoint" />
          </mxGeometry>
        </mxCell>
        <mxCell id="G32MJahWbBB-IwMtLDE4-23" value="&lt;font style=&quot;font-size: 20px;&quot;&gt;Inputs&lt;/font&gt;" style="text;html=1;align=center;verticalAlign=middle;resizable=0;points=[];autosize=1;strokeColor=none;fillColor=none;" vertex="1" parent="1">
          <mxGeometry x="160" y="143" width="80" height="40" as="geometry" />
        </mxCell>
        <mxCell id="G32MJahWbBB-IwMtLDE4-24" value="&lt;font style=&quot;font-size: 20px;&quot;&gt;Feature Map&lt;/font&gt;" style="text;html=1;align=center;verticalAlign=middle;resizable=0;points=[];autosize=1;strokeColor=none;fillColor=none;" vertex="1" parent="1">
          <mxGeometry x="530" y="255" width="140" height="40" as="geometry" />
        </mxCell>
        <mxCell id="G32MJahWbBB-IwMtLDE4-25" value="&lt;font style=&quot;font-size: 20px;&quot;&gt;2 X 2 Convolutional Filter&lt;/font&gt;" style="text;html=1;align=center;verticalAlign=middle;resizable=0;points=[];autosize=1;strokeColor=none;fillColor=none;" vertex="1" parent="1">
          <mxGeometry x="335" y="210" width="250" height="40" as="geometry" />
        </mxCell>
        <mxCell id="G32MJahWbBB-IwMtLDE4-28" value="&lt;font style=&quot;font-size: 20px;&quot;&gt;Local Receptive Field&lt;/font&gt;" style="text;html=1;align=center;verticalAlign=middle;resizable=0;points=[];autosize=1;strokeColor=none;fillColor=none;" vertex="1" parent="1">
          <mxGeometry x="-91" y="223" width="210" height="40" as="geometry" />
        </mxCell>
        <mxCell id="G32MJahWbBB-IwMtLDE4-31" value="" style="endArrow=none;html=1;strokeWidth=2;rounded=0;exitX=0.4;exitY=-0.005;exitDx=0;exitDy=0;exitPerimeter=0;entryX=0;entryY=0;entryDx=0;entryDy=0;" edge="1" parent="1" target="G32MJahWbBB-IwMtLDE4-30">
          <mxGeometry width="50" height="50" relative="1" as="geometry">
            <mxPoint x="120" y="200" as="sourcePoint" />
            <mxPoint x="520" y="322" as="targetPoint" />
          </mxGeometry>
        </mxCell>
        <mxCell id="G32MJahWbBB-IwMtLDE4-32" value="X3" style="text;html=1;align=center;verticalAlign=middle;whiteSpace=wrap;rounded=0;" vertex="1" parent="1">
          <mxGeometry x="120" y="240" width="40" height="40" as="geometry" />
        </mxCell>
        <mxCell id="G32MJahWbBB-IwMtLDE4-33" value="X4" style="text;html=1;align=center;verticalAlign=middle;whiteSpace=wrap;rounded=0;" vertex="1" parent="1">
          <mxGeometry x="160" y="240" width="40" height="40" as="geometry" />
        </mxCell>
        <mxCell id="G32MJahWbBB-IwMtLDE4-34" value="Z1" style="text;html=1;align=center;verticalAlign=middle;whiteSpace=wrap;rounded=0;" vertex="1" parent="1">
          <mxGeometry x="520" y="322" width="40" height="40" as="geometry" />
        </mxCell>
        <mxCell id="G32MJahWbBB-IwMtLDE4-38" value="" style="whiteSpace=wrap;html=1;aspect=fixed;fillColor=#dae8fc;strokeColor=#6c8ebf;" vertex="1" parent="1">
          <mxGeometry x="440" y="120" width="80" height="80" as="geometry" />
        </mxCell>
        <mxCell id="G32MJahWbBB-IwMtLDE4-39" value="" style="endArrow=none;html=1;rounded=0;entryX=1;entryY=0.5;entryDx=0;entryDy=0;exitX=0;exitY=0.5;exitDx=0;exitDy=0;" edge="1" parent="1" source="G32MJahWbBB-IwMtLDE4-38" target="G32MJahWbBB-IwMtLDE4-38">
          <mxGeometry width="50" height="50" relative="1" as="geometry">
            <mxPoint x="370" y="180" as="sourcePoint" />
            <mxPoint x="420" y="130" as="targetPoint" />
          </mxGeometry>
        </mxCell>
        <mxCell id="G32MJahWbBB-IwMtLDE4-40" value="" style="endArrow=none;html=1;rounded=0;entryX=0.5;entryY=1;entryDx=0;entryDy=0;exitX=0.5;exitY=0;exitDx=0;exitDy=0;" edge="1" parent="1" source="G32MJahWbBB-IwMtLDE4-38" target="G32MJahWbBB-IwMtLDE4-38">
          <mxGeometry width="50" height="50" relative="1" as="geometry">
            <mxPoint x="600" y="150" as="sourcePoint" />
            <mxPoint x="680" y="150" as="targetPoint" />
          </mxGeometry>
        </mxCell>
        <mxCell id="G32MJahWbBB-IwMtLDE4-41" value="C1" style="text;html=1;align=center;verticalAlign=middle;whiteSpace=wrap;rounded=0;" vertex="1" parent="1">
          <mxGeometry x="440" y="120" width="40" height="40" as="geometry" />
        </mxCell>
        <mxCell id="G32MJahWbBB-IwMtLDE4-42" value="C2" style="text;html=1;align=center;verticalAlign=middle;whiteSpace=wrap;rounded=0;" vertex="1" parent="1">
          <mxGeometry x="480" y="120" width="40" height="40" as="geometry" />
        </mxCell>
        <mxCell id="G32MJahWbBB-IwMtLDE4-43" value="C3" style="text;html=1;align=center;verticalAlign=middle;whiteSpace=wrap;rounded=0;" vertex="1" parent="1">
          <mxGeometry x="440" y="160" width="40" height="40" as="geometry" />
        </mxCell>
        <mxCell id="G32MJahWbBB-IwMtLDE4-44" value="C4" style="text;html=1;align=center;verticalAlign=middle;whiteSpace=wrap;rounded=0;" vertex="1" parent="1">
          <mxGeometry x="480" y="160" width="40" height="40" as="geometry" />
        </mxCell>
        <mxCell id="G32MJahWbBB-IwMtLDE4-45" value="Z1 = X1 C1 + X2 C2 + X3 C3 + X4 C4 + B" style="text;html=1;align=center;verticalAlign=middle;resizable=0;points=[];autosize=1;strokeColor=none;fillColor=none;" vertex="1" parent="1">
          <mxGeometry x="520" y="130" width="250" height="30" as="geometry" />
        </mxCell>
        <mxCell id="G32MJahWbBB-IwMtLDE4-46" value="X5" style="text;html=1;align=center;verticalAlign=middle;whiteSpace=wrap;rounded=0;" vertex="1" parent="1">
          <mxGeometry x="240" y="320" width="40" height="40" as="geometry" />
        </mxCell>
        <mxCell id="G32MJahWbBB-IwMtLDE4-47" value="X6" style="text;html=1;align=center;verticalAlign=middle;whiteSpace=wrap;rounded=0;" vertex="1" parent="1">
          <mxGeometry x="280" y="320" width="40" height="40" as="geometry" />
        </mxCell>
        <mxCell id="G32MJahWbBB-IwMtLDE4-48" value="X7" style="text;html=1;align=center;verticalAlign=middle;whiteSpace=wrap;rounded=0;" vertex="1" parent="1">
          <mxGeometry x="240" y="360" width="40" height="40" as="geometry" />
        </mxCell>
        <mxCell id="G32MJahWbBB-IwMtLDE4-49" value="X8" style="text;html=1;align=center;verticalAlign=middle;whiteSpace=wrap;rounded=0;" vertex="1" parent="1">
          <mxGeometry x="280" y="360" width="40" height="40" as="geometry" />
        </mxCell>
        <mxCell id="G32MJahWbBB-IwMtLDE4-51" value="Z2" style="text;html=1;align=center;verticalAlign=middle;whiteSpace=wrap;rounded=0;" vertex="1" parent="1">
          <mxGeometry x="640" y="442" width="40" height="40" as="geometry" />
        </mxCell>
        <mxCell id="G32MJahWbBB-IwMtLDE4-53" value="" style="endArrow=none;html=1;strokeWidth=2;rounded=0;exitX=0;exitY=0;exitDx=0;exitDy=0;entryX=0;entryY=0;entryDx=0;entryDy=0;dashed=1;" edge="1" parent="1" source="G32MJahWbBB-IwMtLDE4-46" target="G32MJahWbBB-IwMtLDE4-51">
          <mxGeometry width="50" height="50" relative="1" as="geometry">
            <mxPoint x="430" y="520" as="sourcePoint" />
            <mxPoint x="830" y="599" as="targetPoint" />
          </mxGeometry>
        </mxCell>
        <mxCell id="G32MJahWbBB-IwMtLDE4-55" value="" style="endArrow=none;html=1;strokeWidth=2;rounded=0;exitX=1;exitY=0;exitDx=0;exitDy=0;entryX=1;entryY=0;entryDx=0;entryDy=0;dashed=1;" edge="1" parent="1" source="G32MJahWbBB-IwMtLDE4-47" target="G32MJahWbBB-IwMtLDE4-51">
          <mxGeometry width="50" height="50" relative="1" as="geometry">
            <mxPoint x="690" y="630" as="sourcePoint" />
            <mxPoint x="1090" y="712" as="targetPoint" />
          </mxGeometry>
        </mxCell>
        <mxCell id="G32MJahWbBB-IwMtLDE4-57" value="Z2 = X5 C1 + X6 C2 + X7 C3 + X8 C4 + B" style="text;html=1;align=center;verticalAlign=middle;resizable=0;points=[];autosize=1;strokeColor=none;fillColor=none;" vertex="1" parent="1">
          <mxGeometry x="520" y="170" width="250" height="30" as="geometry" />
        </mxCell>
        <mxCell id="G32MJahWbBB-IwMtLDE4-58" value="&lt;font style=&quot;font-size: 20px;&quot;&gt;Weight Sharing&lt;/font&gt;" style="text;html=1;align=center;verticalAlign=middle;resizable=0;points=[];autosize=1;strokeColor=none;fillColor=none;" vertex="1" parent="1">
          <mxGeometry x="530" y="80" width="160" height="40" as="geometry" />
        </mxCell>
      </root>
    </mxGraphModel>
  </diagram>
</mxfile>
